<svg width="40" height="40" viewBox="0 0 40 40" fill="none" xmlns="http://www.w3.org/2000/svg">
<path d="M32.4999 32.4999H7.49999C6.83695 32.4999 6.20107 32.2365 5.73223 31.7677C5.26339 31.2989 5 30.663 5 29.9999V12.5C5 11.8369 5.26339 11.2011 5.73223 10.7322C6.20107 10.2634 6.83695 9.99999 7.49999 9.99999H12.5L15 6.25H24.9999L27.4999 9.99999H32.4999C33.1629 9.99999 33.7988 10.2634 34.2677 10.7322C34.7365 11.2011 34.9999 11.8369 34.9999 12.5V29.9999C34.9999 30.663 34.7365 31.2989 34.2677 31.7677C33.7988 32.2365 33.1629 32.4999 32.4999 32.4999Z" stroke="#0950CD" stroke-width="2" stroke-linecap="round" stroke-linejoin="round"/>
<path d="M20 26.2499C23.1065 26.2499 25.6249 23.7315 25.6249 20.625C25.6249 17.5184 23.1065 15 20 15C16.8934 15 14.375 17.5184 14.375 20.625C14.375 23.7315 16.8934 26.2499 20 26.2499Z" stroke="#0950CD" stroke-width="2" stroke-linecap="round" stroke-linejoin="round"/>
</svg>
