<svg width="42" height="34" viewBox="0 0 42 34" fill="none" xmlns="http://www.w3.org/2000/svg">
<path d="M33.5381 7.22559H8.39338C7.00468 7.22559 5.87891 8.1499 5.87891 9.2901V23.7417C5.87891 24.8819 7.00468 25.8062 8.39338 25.8062H33.5381C34.9268 25.8062 36.0526 24.8819 36.0526 23.7417V9.2901C36.0526 8.1499 34.9268 7.22559 33.5381 7.22559Z" stroke="#121212" stroke-opacity="0.5" stroke-width="2" stroke-linecap="round" stroke-linejoin="round"/>
<path d="M5.87891 15.4844H14.8053C15.0948 15.4831 15.3758 15.5649 15.5997 15.7157C15.8235 15.8665 15.9761 16.0768 16.0311 16.3102C16.2712 17.2386 16.8923 18.0712 17.7906 18.6685C18.6889 19.2659 19.8098 19.5919 20.9658 19.5919C22.1217 19.5919 23.2426 19.2659 24.1409 18.6685C25.0392 18.0712 25.6603 17.2386 25.9004 16.3102C25.9554 16.0768 26.108 15.8665 26.3318 15.7157C26.5557 15.5649 26.8367 15.4831 27.1262 15.4844H36.0526" stroke="#121212" stroke-opacity="0.5" stroke-width="2" stroke-linecap="round" stroke-linejoin="round"/>
<path d="M5.87891 11.3545H36.0526" stroke="#121212" stroke-opacity="0.5" stroke-width="2" stroke-linecap="round" stroke-linejoin="round"/>
</svg>
