<svg width="26" height="25" viewBox="0 0 26 25" fill="none" xmlns="http://www.w3.org/2000/svg">
<path d="M10.3224 17.0324C12.0327 17.0324 13.4191 15.6459 13.4191 13.9356C13.4191 12.2253 12.0327 10.8389 10.3224 10.8389C8.61206 10.8389 7.22559 12.2253 7.22559 13.9356C7.22559 15.6459 8.61206 17.0324 10.3224 17.0324Z" stroke="#717171" stroke-width="2" stroke-linecap="round" stroke-linejoin="round"/>
<path d="M5.42546 20.1289C5.8649 19.2021 6.55832 18.4191 7.42513 17.8708C8.29194 17.3225 9.29656 17.0314 10.3222 17.0314C11.3479 17.0314 12.3525 17.3225 13.2193 17.8708C14.0862 18.4191 14.7796 19.2021 15.219 20.1289H21.1609C21.3663 20.1289 21.5632 20.0473 21.7084 19.9022C21.8536 19.757 21.9351 19.56 21.9351 19.3547V5.41921C21.9351 5.21388 21.8536 5.01697 21.7084 4.87178C21.5632 4.72659 21.3663 4.64502 21.1609 4.64502H4.12869C3.92336 4.64502 3.72644 4.72659 3.58125 4.87178C3.43606 5.01697 3.35449 5.21388 3.35449 5.41921V19.3547C3.35449 19.56 3.43606 19.757 3.58125 19.9022C3.72644 20.0473 3.92336 20.1289 4.12869 20.1289H5.42546Z" stroke="#717171" stroke-width="2" stroke-linecap="round" stroke-linejoin="round"/>
<path d="M17.2899 17.0325H18.8383V7.74219H6.45117V9.29057" stroke="#717171" stroke-width="2" stroke-linecap="round" stroke-linejoin="round"/>
</svg>
