<?xml version="1.0" encoding="UTF-8"?>
<svg width="752pt" height="752pt" version="1.1" viewBox="0 0 752 752" xmlns="http://www.w3.org/2000/svg">
 <path d="m257.61 243.4c-28.715 0-52.094 23.379-52.094 52.094 0 14.359 5.8086 27.418 15.242 36.852-33.824 13.48-57.863 44.25-57.863 81.543 0 2.6172 2.1211 4.7383 4.7344 4.7383h131.71c-28.211 19.941-46.469 50.676-46.469 85.242 0 2.6172 2.1211 4.7383 4.7344 4.7383h236.79c2.6133 0 4.7344-2.1211 4.7344-4.7383 0-34.566-18.258-65.301-46.469-85.242h131.71c2.6133 0 4.7344-2.1211 4.7344-4.7383 0-37.293-24.039-68.062-57.867-81.543 9.4336-9.4336 15.246-22.492 15.246-36.852 0-28.715-23.383-52.094-52.094-52.094-28.715 0-52.094 23.379-52.094 52.094 0 14.359 5.8086 27.418 15.242 36.852-7.418 2.9414-14.398 6.6133-20.719 11.098-4.3438-29.727-29.914-52.684-60.828-52.684-30.91 0-56.484 22.957-60.824 52.684-6.3203-4.4844-13.301-8.1562-20.719-11.098 9.4336-9.4336 15.242-22.492 15.242-36.852 0-28.715-23.379-52.094-52.094-52.094zm0 9.4727c23.598 0 42.621 19.027 42.621 42.621 0 23.598-19.023 42.621-42.621 42.621-23.594 0-42.621-19.023-42.621-42.621 0-23.594 19.027-42.621 42.621-42.621zm236.79 0c23.594 0 42.621 19.027 42.621 42.621 0 23.598-19.027 42.621-42.621 42.621-23.598 0-42.625-19.023-42.625-42.621 0-23.594 19.027-42.621 42.625-42.621zm-118.4 47.355c28.828 0 52.094 23.27 52.094 52.098 0 28.824-23.266 52.094-52.094 52.094-28.824 0-52.094-23.27-52.094-52.094 0-28.828 23.27-52.098 52.094-52.098zm-146.66 39.074c8.1367 5.2656 17.879 8.2852 28.266 8.2852 10.391 0 20.129-3.0195 28.266-8.2852 10.402 3.4492 19.891 8.5547 27.973 15.094 0.22656 0.22266 0.47266 0.41797 0.73828 0.58984 0.79688 18.258 9.582 34.523 22.941 45.289-7.8516 2.2891-15.27 5.2969-22.348 8.8789-0.24609-0.019532-0.49219-0.019532-0.73828 0h-141.34c2.0977-32.77 24.496-59.309 56.238-69.852zm236.79 0c8.1367 5.2656 17.879 8.2852 28.27 8.2852 10.387 0 20.129-3.0195 28.266-8.2852 31.746 10.539 54.137 37.082 56.238 69.852h-141.34c-0.14844 0.042968-0.29688 0.089844-0.44531 0.14844-7.1641-3.6484-14.68-6.707-22.641-9.0273 13.359-10.766 22.141-27.031 22.938-45.289 0.26562-0.17188 0.51562-0.36719 0.74219-0.58984 8.082-6.5391 17.57-11.645 27.969-15.094zm-117.66 68.074c8.293 4.168 17.637 6.5117 27.527 6.5117 9.8945 0 19.238-2.3438 27.527-6.5117 47.98 10.465 83.266 47.477 85.691 91.758h-226.43c2.4258-44.285 37.711-81.293 85.688-91.758z"/>
</svg>
