<svg width="16" height="17" viewBox="0 0 16 17" fill="none" xmlns="http://www.w3.org/2000/svg">
<path d="M6.75 8.5H13.5" stroke="#121212" stroke-opacity="0.8" stroke-width="2" stroke-linecap="round" stroke-linejoin="round"/>
<path d="M2.5 8.5H4.25002" stroke="#121212" stroke-opacity="0.8" stroke-width="2" stroke-linecap="round" stroke-linejoin="round"/>
<path d="M6.75 8.5C6.75 7.80964 6.19036 7.25 5.5 7.25C4.80964 7.25 4.25 7.80964 4.25 8.5C4.25 9.19036 4.80964 9.75 5.5 9.75C6.19036 9.75 6.75 9.19036 6.75 8.5Z" stroke="#121212" stroke-opacity="0.8" stroke-width="2" stroke-linecap="round" stroke-linejoin="round"/>
<path d="M11.75 4H13.5" stroke="#121212" stroke-opacity="0.8" stroke-width="2" stroke-linecap="round" stroke-linejoin="round"/>
<path d="M2.5 4H9.24999" stroke="#121212" stroke-opacity="0.8" stroke-width="2" stroke-linecap="round" stroke-linejoin="round"/>
<path d="M11.75 4C11.75 3.30964 11.1904 2.75 10.5 2.75C9.80964 2.75 9.25 3.30964 9.25 4C9.25 4.69036 9.80964 5.25 10.5 5.25C11.1904 5.25 11.75 4.69036 11.75 4Z" stroke="#121212" stroke-opacity="0.8" stroke-width="2" stroke-linecap="round" stroke-linejoin="round"/>
<path d="M9.75 13H13.5" stroke="#121212" stroke-opacity="0.8" stroke-width="2" stroke-linecap="round" stroke-linejoin="round"/>
<path d="M2.5 13H7.25001" stroke="#121212" stroke-opacity="0.8" stroke-width="2" stroke-linecap="round" stroke-linejoin="round"/>
<path d="M9.75 13C9.75 12.3096 9.19036 11.75 8.5 11.75C7.80964 11.75 7.25 12.3096 7.25 13C7.25 13.6904 7.80964 14.25 8.5 14.25C9.19036 14.25 9.75 13.6904 9.75 13Z" stroke="#121212" stroke-opacity="0.8" stroke-width="2" stroke-linecap="round" stroke-linejoin="round"/>
</svg>
