<svg width="26" height="26" viewBox="0 0 26 26" fill="none" xmlns="http://www.w3.org/2000/svg">
<path d="M12.8388 17.4075C15.4042 17.4075 17.4839 15.3278 17.4839 12.7624C17.4839 10.1969 15.4042 8.11719 12.8388 8.11719C10.2733 8.11719 8.1936 10.1969 8.1936 12.7624C8.1936 15.3278 10.2733 17.4075 12.8388 17.4075Z" stroke="#717171" stroke-width="1.9375" stroke-linecap="round" stroke-linejoin="round"/>
<path d="M18.229 6.67493C18.4742 6.90074 18.7064 7.13299 18.9258 7.3717L21.5677 7.74912C21.9982 8.49671 22.33 9.29692 22.5548 10.1298L20.9484 12.2685C20.9484 12.2685 20.9774 12.9265 20.9484 13.2556L22.5548 15.3943C22.331 16.2275 21.9992 17.0278 21.5677 17.7749L18.9258 18.1523C18.9258 18.1523 18.4709 18.6265 18.229 18.8491L17.8516 21.4911C17.104 21.9215 16.3038 22.2533 15.4709 22.4781L13.3322 20.8717C13.0038 20.9007 12.6735 20.9007 12.3451 20.8717L10.2064 22.4781C9.37322 22.2544 8.57288 21.9225 7.82578 21.4911L7.44836 18.8491C7.20965 18.6233 6.9774 18.3911 6.75159 18.1523L4.10965 17.7749C3.67919 17.0273 3.34739 16.2271 3.12256 15.3943L4.72901 13.2556C4.72901 13.2556 4.69998 12.5975 4.72901 12.2685L3.12256 10.1298C3.34635 9.29656 3.6782 8.49622 4.10965 7.74912L6.75159 7.3717C6.9774 7.13299 7.20965 6.90074 7.44836 6.67493L7.82578 4.03299C8.57337 3.60253 9.37358 3.27073 10.2064 3.0459L12.3451 4.65235C12.6735 4.62331 13.0038 4.62331 13.3322 4.65235L15.4709 3.0459C16.3041 3.26969 17.1045 3.60154 17.8516 4.03299L18.229 6.67493Z" stroke="#717171" stroke-width="1.9375" stroke-linecap="round" stroke-linejoin="round"/>
</svg>
