<svg width="26" height="26" viewBox="0 0 26 26" fill="none" xmlns="http://www.w3.org/2000/svg">
<path d="M12.8387 17.7942C14.9766 17.7942 16.7097 16.0611 16.7097 13.9232C16.7097 11.7853 14.9766 10.0522 12.8387 10.0522C10.7009 10.0522 8.96777 11.7853 8.96777 13.9232C8.96777 16.0611 10.7009 17.7942 12.8387 17.7942Z" stroke="#717171" stroke-width="1.9375" stroke-linecap="round" stroke-linejoin="round"/>
<path d="M19.4194 11.6006C20.3211 11.5991 21.2107 11.8083 22.0172 12.2116C22.8237 12.6148 23.5248 13.2009 24.0646 13.9232" stroke="#717171" stroke-width="1.9375" stroke-linecap="round" stroke-linejoin="round"/>
<path d="M1.61304 13.9232C2.15284 13.2009 2.85395 12.6148 3.66045 12.2116C4.46695 11.8083 5.35651 11.5991 6.2582 11.6006" stroke="#717171" stroke-width="1.9375" stroke-linecap="round" stroke-linejoin="round"/>
<path d="M7.26465 21.2783C7.77448 20.2342 8.56731 19.3542 9.55282 18.7387C10.5383 18.1232 11.6769 17.7969 12.8388 17.7969C14.0008 17.7969 15.1393 18.1232 16.1249 18.7387C17.1104 19.3542 17.9032 20.2342 18.413 21.2783" stroke="#717171" stroke-width="1.9375" stroke-linecap="round" stroke-linejoin="round"/>
<path d="M6.25812 11.6007C5.67035 11.6013 5.09456 11.4346 4.59801 11.1201C4.10145 10.8056 3.70466 10.3563 3.45398 9.82471C3.2033 9.29309 3.10909 8.70111 3.18236 8.11793C3.25563 7.53476 3.49335 6.98448 3.86775 6.53139C4.24215 6.0783 4.73776 5.74111 5.29668 5.55923C5.85559 5.37735 6.45473 5.35828 7.02408 5.50425C7.59343 5.65022 8.10948 5.95521 8.51194 6.38358C8.91439 6.81194 9.18662 7.34599 9.29683 7.92333" stroke="#717171" stroke-width="1.9375" stroke-linecap="round" stroke-linejoin="round"/>
<path d="M16.3806 7.92333C16.4908 7.34599 16.7631 6.81194 17.1655 6.38358C17.568 5.95521 18.084 5.65022 18.6534 5.50425C19.2227 5.35828 19.8219 5.37735 20.3808 5.55923C20.9397 5.74111 21.4353 6.0783 21.8097 6.53139C22.1841 6.98448 22.4218 7.53476 22.4951 8.11793C22.5684 8.70111 22.4742 9.29309 22.2235 9.82471C21.9728 10.3563 21.576 10.8056 21.0794 11.1201C20.5829 11.4346 20.0071 11.6013 19.4193 11.6007" stroke="#717171" stroke-width="1.9375" stroke-linecap="round" stroke-linejoin="round"/>
</svg>
