<svg width="6" height="7" viewBox="0 0 6 7" fill="none" xmlns="http://www.w3.org/2000/svg">
<path d="M3.00065 6.08431C2.47324 6.08431 1.95766 5.92791 1.51913 5.6349C1.0806 5.34188 0.738807 4.9254 0.536973 4.43813C0.33514 3.95086 0.282331 3.41469 0.385225 2.8974C0.488119 2.38012 0.742094 1.90497 1.11503 1.53203C1.48797 1.15909 1.96313 0.905111 2.48041 0.802217C2.99769 0.699323 3.53387 0.752132 4.02114 0.953966C4.50841 1.1558 4.92489 1.49759 5.21791 1.93612C5.51092 2.37465 5.66732 2.89023 5.66732 3.41764C5.66732 4.12489 5.38637 4.80317 4.88627 5.30326C4.38617 5.80336 3.7079 6.08431 3.00065 6.08431ZM3.00065 2.08431C2.73694 2.08431 2.47916 2.16251 2.25989 2.30902C2.04063 2.45553 1.86973 2.66377 1.76881 2.9074C1.6679 3.15103 1.64149 3.41912 1.69294 3.67776C1.74439 3.93641 1.87137 4.17398 2.05784 4.36045C2.24431 4.54692 2.48189 4.67391 2.74053 4.72536C2.99917 4.77681 3.26726 4.7504 3.5109 4.64948C3.75453 4.54857 3.96277 4.37767 4.10928 4.1584C4.25579 3.93914 4.33399 3.68135 4.33399 3.41764C4.33399 3.06402 4.19351 2.72488 3.94346 2.47484C3.69341 2.22479 3.35427 2.08431 3.00065 2.08431Z" fill="#5D84C1"/>
</svg>
