<svg width="40" height="40" viewBox="0 0 40 40" fill="none" xmlns="http://www.w3.org/2000/svg">
<path d="M34.2977 18.9063L7.90718 4.1251C7.68488 4.00229 7.43045 3.95011 7.17776 3.9755C6.92507 4.00089 6.68611 4.10265 6.49269 4.26723C6.29927 4.4318 6.16056 4.65139 6.09505 4.89676C6.02953 5.14213 6.0403 5.40163 6.12594 5.64072L11.0947 19.5782C11.2041 19.8488 11.2041 20.1513 11.0947 20.4219L6.12594 34.3594C6.0403 34.5985 6.02953 34.858 6.09505 35.1034C6.16056 35.3487 6.29927 35.5683 6.49269 35.7329C6.68611 35.8975 6.92507 35.9993 7.17776 36.0246C7.43045 36.05 7.68488 35.9979 7.90718 35.875L34.2977 21.0938C34.493 20.9857 34.6559 20.8273 34.7693 20.6349C34.8827 20.4426 34.9425 20.2234 34.9425 20.0001C34.9425 19.7768 34.8827 19.5576 34.7693 19.3652C34.6559 19.1729 34.493 19.0144 34.2977 18.9063Z" fill="#0950CD" stroke="#0950CD" stroke-width="2" stroke-linecap="round" stroke-linejoin="round"/>
<path d="M11.25 20H21.25" stroke="white" stroke-width="2" stroke-linecap="round" stroke-linejoin="round"/>
</svg>
