<svg width="26" height="26" viewBox="0 0 26 26" fill="none" xmlns="http://www.w3.org/2000/svg">
<path d="M21.3548 7.34277H4.32253C3.89496 7.34277 3.54834 7.68939 3.54834 8.11697V20.5041C3.54834 20.9316 3.89496 21.2783 4.32253 21.2783H21.3548C21.7824 21.2783 22.129 20.9316 22.129 20.5041V8.11697C22.129 7.68939 21.7824 7.34277 21.3548 7.34277Z" stroke="#717171" stroke-width="1.9375" stroke-linecap="round" stroke-linejoin="round"/>
<path d="M16.7097 7.34286V5.79448C16.7097 5.38382 16.5466 4.98998 16.2562 4.69961C15.9658 4.40923 15.572 4.24609 15.1613 4.24609H10.5162C10.1055 4.24609 9.71166 4.40923 9.42129 4.69961C9.13091 4.98998 8.96777 5.38382 8.96777 5.79448V7.34286" stroke="#717171" stroke-width="1.9375" stroke-linecap="round" stroke-linejoin="round"/>
<path d="M3.54834 15.8589H22.129" stroke="#717171" stroke-width="1.9375" stroke-linecap="round" stroke-linejoin="round"/>
</svg>
