<svg width="40" height="40" viewBox="0 0 40 40" fill="none" xmlns="http://www.w3.org/2000/svg">
<path d="M39.4977 20.0014C39.4881 24.7656 37.7396 29.3623 34.5807 32.9286C31.4218 36.4949 27.0697 38.7855 22.3415 39.3701C22.236 39.3805 22.1295 39.3689 22.0286 39.3361C21.9278 39.3034 21.8349 39.2501 21.7556 39.1796C21.6764 39.1092 21.6126 39.0231 21.5682 38.9268C21.5238 38.8306 21.4998 38.7261 21.4977 38.6201V24.5014H25.9977C26.2029 24.5018 26.4059 24.4601 26.5943 24.3789C26.7827 24.2978 26.9524 24.1788 27.093 24.0294C27.2336 23.8801 27.342 23.7034 27.4116 23.5105C27.4813 23.3175 27.5106 23.1124 27.4977 22.9076C27.4646 22.5198 27.2855 22.1589 26.9967 21.8979C26.7078 21.6369 26.3307 21.4952 25.9415 21.5014H21.4977V17.0014C21.4977 16.2057 21.8138 15.4427 22.3764 14.8801C22.939 14.3175 23.7021 14.0014 24.4977 14.0014H27.4977C27.7029 14.0018 27.9059 13.9601 28.0943 13.8789C28.2827 13.7978 28.4524 13.6788 28.593 13.5294C28.7336 13.3801 28.842 13.2034 28.9116 13.0105C28.9813 12.8175 29.0106 12.6124 28.9977 12.4076C28.9646 12.0198 28.7855 11.6589 28.4967 11.3979C28.2078 11.1369 27.8307 10.9952 27.4415 11.0014H24.4977C22.9064 11.0014 21.3803 11.6335 20.2551 12.7587C19.1299 13.884 18.4977 15.4101 18.4977 17.0014V21.5014H13.9977C13.7926 21.501 13.5896 21.5427 13.4012 21.6238C13.2128 21.705 13.0431 21.824 12.9025 21.9733C12.7619 22.1227 12.6535 22.2993 12.5838 22.4923C12.5142 22.6852 12.4849 22.8904 12.4977 23.0951C12.5309 23.483 12.71 23.8438 12.9988 24.1048C13.2877 24.3658 13.6648 24.5075 14.054 24.5014H18.4977V38.6201C18.4983 38.7253 18.4767 38.8293 18.4344 38.9256C18.3921 39.0218 18.3301 39.1081 18.2523 39.1788C18.1745 39.2496 18.0827 39.3031 17.9828 39.3361C17.883 39.3691 17.7774 39.3806 17.6727 39.3701C7.77274 38.1701 0.122745 29.5639 0.516495 19.2701C0.737526 14.1866 2.93684 9.39082 6.645 5.90646C10.3531 2.4221 15.2764 0.525186 20.3638 0.620622C25.4513 0.716057 30.2999 2.79628 33.8748 6.41726C37.4496 10.0382 39.4675 14.9131 39.4977 20.0014V20.0014Z" fill="white"/>
</svg>
