<svg width="20" height="20" viewBox="0 0 20 20" fill="none" xmlns="http://www.w3.org/2000/svg">
<path d="M6.69063 18.2499H2.5C2.30109 18.2499 2.11033 18.1709 1.96967 18.0302C1.82902 17.8896 1.75 17.6988 1.75 17.4999V13.3093C1.74966 13.2119 1.76853 13.1154 1.80553 13.0253C1.84253 12.9352 1.89694 12.8533 1.96563 12.7843L13.2156 1.53429C13.2854 1.46343 13.3686 1.40715 13.4603 1.36874C13.5521 1.33033 13.6505 1.31055 13.75 1.31055C13.8495 1.31055 13.9479 1.33033 14.0397 1.36874C14.1314 1.40715 14.2146 1.46343 14.2844 1.53429L18.4656 5.71554C18.5365 5.78533 18.5928 5.86851 18.6312 5.96026C18.6696 6.052 18.6894 6.15046 18.6894 6.24992C18.6894 6.34938 18.6696 6.44784 18.6312 6.53958C18.5928 6.63132 18.5365 6.71451 18.4656 6.78429L7.21563 18.0343C7.1466 18.103 7.06469 18.1574 6.9746 18.1944C6.88452 18.2314 6.78802 18.2503 6.69063 18.2499V18.2499Z" stroke="#0950CD" stroke-width="2" stroke-linecap="round" stroke-linejoin="round"/>
</svg>
