<svg width="42" height="37" viewBox="0 0 42 37" fill="none" xmlns="http://www.w3.org/2000/svg">
<path d="M41.0693 7.56893L35.4068 13.2127C34.2818 26.3189 23.2192 36.5002 10.0005 36.5002C7.28175 36.5002 5.03175 36.0689 3.3255 35.2252C1.95675 34.5314 1.39425 33.8002 1.24425 33.5752C1.12014 33.3867 1.04017 33.1726 1.01029 32.9489C0.980416 32.7252 1.0014 32.4976 1.07169 32.2832C1.14197 32.0687 1.25975 31.8729 1.41624 31.7102C1.57273 31.5476 1.7639 31.4224 1.9755 31.3439C2.013 31.3252 6.438 29.6377 9.30675 26.3939C7.52764 25.1272 5.96391 23.5824 4.6755 21.8189C2.10675 18.3314 -0.612001 12.2752 1.01925 3.23768C1.07053 2.969 1.19342 2.71916 1.37493 2.51454C1.55645 2.30992 1.78985 2.15812 2.0505 2.07518C2.31198 1.98956 2.59196 1.97751 2.85983 2.04034C3.12769 2.10317 3.37312 2.23847 3.56925 2.43143C3.6255 2.50643 9.86925 8.65643 17.5005 10.6439V9.50018C17.5079 8.31089 17.7494 7.13469 18.2113 6.03875C18.6733 4.94281 19.3466 3.9486 20.1927 3.11286C21.0389 2.27713 22.0414 1.61625 23.143 1.16797C24.2446 0.719682 25.4237 0.492766 26.613 0.500176C28.1739 0.522438 29.7024 0.948642 31.0497 1.73726C32.3969 2.52588 33.5169 3.65003 34.3005 5.00018H40.0005C40.2966 4.99925 40.5864 5.086 40.8333 5.2495C41.0803 5.413 41.2732 5.64592 41.388 5.91893C41.4961 6.19599 41.5235 6.49799 41.4671 6.78999C41.4107 7.08199 41.2727 7.35205 41.0693 7.56893V7.56893Z" fill="white"/>
</svg>
